<?xml version="1.0" encoding="utf-8"?>
<svg id="svg-sprite" id="Layer_1" xmlns="http://www.w3.org/2000/svg" xmlns:xlink="http://www.w3.org/1999/xlink">

	<symbol id="mail" viewBox="0 0 23 16.391">
		<g>
			<path d="M22.632,14.851l-6.476-7.022l6.48-6.493C22.771,1.201,23,1.295,23,1.485v13.22
				C23,14.9,22.762,14.993,22.632,14.851z M12.74,11.248c-0.371,0.373-0.875,0.582-1.402,0.582h-0.016
				c-0.535,0-1.05-0.212-1.429-0.591L7.975,9.323l-6.587,6.705c-0.132,0.135-0.037,0.362,0.151,0.362h20
				c0.187,0,0.283-0.222,0.158-0.357l-6.596-7.149L12.74,11.248z M11.32,10.342L11.32,10.342c0.143,0,0.276-0.057,0.377-0.156
				l9.805-9.822C21.636,0.229,21.541,0,21.352,0H1.258c-0.189,0-0.285,0.229-0.15,0.363l9.838,9.821
				C11.045,10.286,11.18,10.342,11.32,10.342z M0,1.876v12.918c0,0.19,0.231,0.285,0.365,0.148L6.92,8.271L0.363,1.726
				C0.229,1.593,0,1.688,0,1.876z"/>
		</g>
	</symbol>

	<symbol id="skype" viewBox="0 0 24 24">
		<g>
			<path d="M18,24c-1.375,0-2.641-0.469-3.656-1.25C13.594,22.906,12.797,23,12,23C5.922,23,1,18.078,1,12
				c0-0.797,0.094-1.594,0.25-2.344C0.469,8.641,0,7.375,0,6c0-3.313,2.688-6,6-6c1.375,0,2.641,0.469,3.656,1.25
				C10.406,1.094,11.203,1,12,1c6.078,0,11,4.922,11,11c0,0.797-0.094,1.594-0.25,2.344C23.531,15.359,24,16.625,24,18
				C24,21.313,21.313,24,18,24z M13.469,10.453l-1.625-0.375c-1.188-0.281-2.078-0.484-2.078-1.391c0-0.828,0.875-1.203,2.25-1.203
				c2.453,0,2.5,1.797,4.016,1.797c1.016,0,1.625-0.797,1.625-1.703c0-1.797-2.984-2.969-5.938-2.969
				c-2.703,0-5.844,1.172-5.844,4.344c0,2.625,1.75,3.563,4.031,4.109l2.281,0.563c1.391,0.344,2.25,0.5,2.25,1.5
				c0,0.797-0.891,1.406-2.266,1.406c-2.891,0-3.047-2.406-4.719-2.406c-1.094,0-1.578,0.781-1.578,1.641
				c0,1.922,2.938,3.484,6.453,3.484c2.938,0,6-1.469,6-4.641C18.328,11.891,15.688,10.953,13.469,10.453z"/>
		</g>
	</symbol>
	
	<symbol id="phone" viewBox="0 0 18.864 18.863">
		<g>
			<path d="M18.448,16.76c-0.281,0.656-1.031,1.086-1.634,1.42c-0.791,0.43-1.595,0.684-2.492,0.684
				c-1.246,0-2.371-0.51-3.51-0.924c-0.817-0.295-1.608-0.657-2.345-1.112c-2.278-1.407-5.024-4.153-6.431-6.431
				C1.581,9.659,1.219,8.869,0.924,8.052C0.509,6.913,0,5.788,0,4.542C0,3.644,0.254,2.84,0.683,2.05
				c0.335-0.603,0.764-1.353,1.42-1.634C2.545,0.214,3.483,0,3.965,0C4.06,0,4.153,0,4.247,0.04c0.281,0.094,0.576,0.75,0.71,1.019
				c0.429,0.764,0.844,1.541,1.286,2.291c0.214,0.349,0.616,0.777,0.616,1.192c0,0.817-2.425,2.01-2.425,2.733
				c0,0.361,0.335,0.831,0.522,1.152c1.353,2.438,3.041,4.126,5.479,5.479c0.322,0.188,0.791,0.522,1.152,0.522
				c0.724,0,1.916-2.425,2.733-2.425c0.415,0,0.844,0.402,1.192,0.616c0.75,0.442,1.527,0.857,2.291,1.286
				c0.268,0.134,0.924,0.429,1.018,0.71c0.041,0.094,0.041,0.188,0.041,0.281C18.864,15.38,18.649,16.318,18.448,16.76z"/>
		</g>
	</symbol>

	<symbol id="map" viewBox="0 0 15.151 21.654">
		<g>
			<path d="M11.004,7.835c0-1.883-1.538-3.414-3.43-3.414c-1.889,0-3.431,1.531-3.431,3.414
				c0,1.884,1.542,3.419,3.431,3.419C9.466,11.254,11.004,9.719,11.004,7.835z"/>
			<path d="M7.574,21.654l1.388-1.817c1.455-1.925,6.189-8.469,6.189-12.049C15.151,3.132,12.106,0,7.574,0
				C3.045,0,0,3.132,0,7.788c0,3.854,5.56,11.223,6.192,12.049L7.574,21.654z M2.792,7.835c0-2.628,2.146-4.77,4.782-4.77
				c2.64,0,4.785,2.142,4.785,4.77c0,2.63-2.146,4.771-4.785,4.771C4.938,12.605,2.792,10.465,2.792,7.835z"/>
		</g>
	</symbol>
</svg>
