<?xml version="1.0" encoding="utf-8"?>
<svg version="1.1" id="svg-sprite" xmlns="http://www.w3.org/2000/svg" xmlns:xlink="http://www.w3.org/1999/xlink">
	<symbol id="hamburger" viewBox="0 0 40 35">
		<path d="M40,2.5C40,3.881,38.881,5,37.5,5h-35C1.119,5,0,3.881,0,2.5l0,0C0,1.119,1.119,0,2.5,0h35
			C38.881,0,40,1.119,40,2.5L40,2.5z"/>
		<path d="M40,17.5c0,1.381-1.119,2.5-2.5,2.5h-35C1.119,20,0,18.881,0,17.5l0,0C0,16.119,1.119,15,2.5,15h35
			C38.881,15,40,16.119,40,17.5L40,17.5z"/>
		<path d="M40,32.5c0,1.381-1.119,2.5-2.5,2.5h-35C1.119,35,0,33.881,0,32.5l0,0C0,31.119,1.119,30,2.5,30h35
			C38.881,30,40,31.119,40,32.5L40,32.5z"/>
	</symbol>

	<symbol id="arrow_down" viewBox="0 0 25.18 16.164">
		<g>
			<path d="M13.293,15.871c-0.391,0.391-1.016,0.391-1.406,0L0.293,4.293c-0.391-0.391-0.391-1.031,0-1.422
				l2.594-2.578c0.391-0.391,1.016-0.391,1.406,0L12.59,8.59l8.297-8.297c0.391-0.391,1.016-0.391,1.406,0l2.594,2.578
				c0.391,0.391,0.391,1.031,0,1.422L13.293,15.871z"/>
		</g>
	</symbol>

	<symbol id="arrow_up" viewBox="0 0 42.736 27.435">
		<g>
			<path d="M42.239,20.149c0.663,0.662,0.663,1.75,0,2.413l-4.401,4.376c-0.663,0.662-1.725,0.662-2.388,0
				L21.369,12.856L7.287,26.938c-0.663,0.662-1.724,0.662-2.387,0l-4.402-4.376c-0.663-0.663-0.663-1.751,0-2.413L20.175,0.498
				c0.663-0.663,1.724-0.663,2.387,0L42.239,20.149z"/>
		</g>
	</symbol>

	<symbol id="arrow_down_2" viewBox="0 0 42.736 27.435">
		<g>
			<path d="M22.563,26.938c-0.663,0.663-1.724,0.663-2.387,0L0.498,7.286c-0.663-0.663-0.663-1.75,0-2.413L4.9,0.497
				c0.663-0.663,1.724-0.663,2.387,0l14.082,14.082L35.45,0.497c0.663-0.663,1.725-0.663,2.388,0l4.401,4.376
				c0.663,0.663,0.663,1.75,0,2.413L22.563,26.938z"/>
		</g>
	</symbol>

</svg>
