<?xml version="1.0" encoding="utf-8"?>
<svg version="1.1" id="svg-sprite" xmlns="http://www.w3.org/2000/svg" xmlns:xlink="http://www.w3.org/1999/xlink">
	<symbol id="hamburger" viewBox="0 0 40 35">
		<path id="hamburger1" d="M40,2.5C40,3.881,38.881,5,37.5,5h-35C1.119,5,0,3.881,0,2.5l0,0C0,1.119,1.119,0,2.5,0h35
			C38.881,0,40,1.119,40,2.5L40,2.5z"/>
		<path id="hamburger2" d="M40,17.5c0,1.381-1.119,2.5-2.5,2.5h-35C1.119,20,0,18.881,0,17.5l0,0C0,16.119,1.119,15,2.5,15h35
			C38.881,15,40,16.119,40,17.5L40,17.5z"/>
		<path id="hamburger3" d="M40,32.5c0,1.381-1.119,2.5-2.5,2.5h-35C1.119,35,0,33.881,0,32.5l0,0C0,31.119,1.119,30,2.5,30h35
			C38.881,30,40,31.119,40,32.5L40,32.5z"/>
	</symbol>

	<symbol id="arrow_down" viewBox="0 0 25.18 16.164">
		<g>
			<path d="M13.293,15.871c-0.391,0.391-1.016,0.391-1.406,0L0.293,4.293c-0.391-0.391-0.391-1.031,0-1.422
				l2.594-2.578c0.391-0.391,1.016-0.391,1.406,0L12.59,8.59l8.297-8.297c0.391-0.391,1.016-0.391,1.406,0l2.594,2.578
				c0.391,0.391,0.391,1.031,0,1.422L13.293,15.871z"/>
		</g>
	</symbol>

	<symbol id="arrow_up" viewBox="0 0 42.736 27.435">
		<g>
			<path d="M42.239,20.149c0.663,0.662,0.663,1.75,0,2.413l-4.401,4.376c-0.663,0.662-1.725,0.662-2.388,0
				L21.369,12.856L7.287,26.938c-0.663,0.662-1.724,0.662-2.387,0l-4.402-4.376c-0.663-0.663-0.663-1.751,0-2.413L20.175,0.498
				c0.663-0.663,1.724-0.663,2.387,0L42.239,20.149z"/>
		</g>
	</symbol>

	<symbol id="arrow_down_2" viewBox="0 0 42.736 27.435">
		<g>
			<path d="M22.563,26.938c-0.663,0.663-1.724,0.663-2.387,0L0.498,7.286c-0.663-0.663-0.663-1.75,0-2.413L4.9,0.497
				c0.663-0.663,1.724-0.663,2.387,0l14.082,14.082L35.45,0.497c0.663-0.663,1.725-0.663,2.388,0l4.401,4.376
				c0.663,0.663,0.663,1.75,0,2.413L22.563,26.938z"/>
		</g>
	</symbol>

	<symbol id="link" viewBox="0 0 19.125 19.125">
		<g>
			<path d="M18.129,16.441l-1.723,1.711c-0.633,0.633-1.488,0.973-2.379,0.973c-0.902,0-1.758-0.352-2.391-0.996
				l-2.414-2.426C8.59,15.07,8.25,14.215,8.25,13.324c0-0.926,0.375-1.805,1.031-2.449L8.25,9.844
				c-0.645,0.656-1.512,1.031-2.438,1.031c-0.891,0-1.758-0.352-2.391-0.984L0.984,7.453C0.34,6.809,0,5.965,0,5.063
				c0-0.891,0.363-1.758,0.996-2.379l1.723-1.711C3.352,0.34,4.207,0,5.098,0C6,0,6.855,0.352,7.488,0.996l2.414,2.426
				c0.633,0.633,0.973,1.488,0.973,2.379c0,0.926-0.375,1.805-1.031,2.449l1.031,1.031c0.645-0.656,1.512-1.031,2.438-1.031
				c0.891,0,1.758,0.352,2.391,0.984l2.438,2.438c0.645,0.645,0.984,1.488,0.984,2.391C19.125,14.953,18.762,15.82,18.129,16.441z
				M8.309,5.004L5.895,2.578C5.684,2.367,5.391,2.25,5.098,2.25S4.512,2.367,4.301,2.566L2.578,4.277
				C2.367,4.488,2.25,4.77,2.25,5.063c0,0.305,0.117,0.586,0.328,0.797l2.438,2.438C5.227,8.508,5.52,8.613,5.813,8.613
				c0.34,0,0.609-0.117,0.844-0.363C6.27,7.863,5.813,7.535,5.813,6.938c0-0.621,0.504-1.125,1.125-1.125
				c0.598,0,0.926,0.457,1.313,0.844c0.246-0.234,0.387-0.504,0.387-0.855C8.637,5.508,8.52,5.215,8.309,5.004z M16.547,13.266
				l-2.438-2.438c-0.211-0.211-0.504-0.328-0.797-0.328c-0.34,0-0.609,0.129-0.844,0.375c0.387,0.387,0.844,0.715,0.844,1.313
				c0,0.621-0.504,1.125-1.125,1.125c-0.598,0-0.926-0.457-1.313-0.844c-0.246,0.234-0.387,0.504-0.387,0.855
				c0,0.293,0.117,0.586,0.328,0.797l2.414,2.426c0.211,0.211,0.504,0.316,0.797,0.316s0.586-0.105,0.797-0.305l1.723-1.711
				c0.211-0.211,0.328-0.492,0.328-0.785C16.875,13.758,16.758,13.477,16.547,13.266z"/>
		</g>
	</symbol>

	<symbol id="check" viewBox="0 0 18.164 13.922">
		<g>
			<path d="M17.836,3.516L9.352,12l-1.594,1.594c-0.211,0.211-0.504,0.328-0.797,0.328s-0.586-0.117-0.797-0.328
				L4.57,12L0.328,7.758C0.117,7.547,0,7.254,0,6.961s0.117-0.586,0.328-0.797L1.922,4.57c0.211-0.211,0.504-0.328,0.797-0.328
				S3.305,4.359,3.516,4.57l3.445,3.457l7.688-7.699C14.859,0.117,15.152,0,15.445,0s0.586,0.117,0.797,0.328l1.594,1.594
				c0.211,0.211,0.328,0.504,0.328,0.797S18.047,3.305,17.836,3.516z"/>
		</g>
	</symbol>
	
	<symbol id="password" viewBox="0 0 16.897 15.984">
		<g>
			<path d="M15.743,12.078c-0.261,0-1.074-0.943-1.285-1.154l-0.964,0.964l2.209,2.209
				c0.181,0.181,0.281,0.432,0.281,0.683c0,0.563-0.643,1.205-1.205,1.205c-0.251,0-0.502-0.101-0.683-0.281L7.359,8.966
				c-1.054,0.783-2.339,1.315-3.664,1.315C1.506,10.281,0,8.765,0,6.586C0,3.293,3.293,0,6.586,0c2.18,0,3.695,1.506,3.695,3.695
				c0,1.325-0.532,2.61-1.315,3.665l3.564,3.564l0.964-0.964c-0.211-0.211-1.154-1.024-1.154-1.285c0-0.231,0.924-1.155,1.154-1.155
				c0.08,0,0.171,0.041,0.23,0.101c0.372,0.372,3.173,3.012,3.173,3.303C16.897,11.154,15.974,12.078,15.743,12.078z M6.426,1.928
				c-1.064,0-1.928,0.863-1.928,1.928c0,0.291,0.07,0.572,0.19,0.833C4.428,4.568,4.146,4.498,3.855,4.498
				c-1.064,0-1.928,0.863-1.928,1.928s0.863,1.928,1.928,1.928S5.783,7.49,5.783,6.426c0-0.291-0.07-0.572-0.19-0.833
				c0.261,0.121,0.542,0.191,0.833,0.191c1.064,0,1.928-0.863,1.928-1.928S7.49,1.928,6.426,1.928z"/>
		</g>

	</symbol>

	<symbol id="login" viewBox="0 0 14.137 15.422">
		<g>
			<path d="M11.456,15.422H2.681C1.084,15.422,0,14.448,0,12.821c0-2.269,0.532-5.753,3.474-5.753
				c0.312,0,1.627,1.396,3.595,1.396s3.283-1.396,3.595-1.396c2.941,0,3.474,3.484,3.474,5.753
				C14.137,14.448,13.053,15.422,11.456,15.422z M7.068,7.711c-2.129,0-3.855-1.727-3.855-3.855S4.939,0,7.068,0
				s3.855,1.727,3.855,3.855S9.197,7.711,7.068,7.711z"/>
		</g>
	</symbol>

	<symbol id="close" viewBox="0 0 348.333 348.334"> 
		<g>
			<path d="M336.559,68.611L231.016,174.165l105.543,105.549c15.699,15.705,15.699,41.145,0,56.85
				c-7.844,7.844-18.128,11.769-28.407,11.769c-10.296,0-20.581-3.919-28.419-11.769L174.167,231.003L68.609,336.563
				c-7.843,7.844-18.128,11.769-28.416,11.769c-10.285,0-20.563-3.919-28.413-11.769c-15.699-15.698-15.699-41.139,0-56.85
				l105.54-105.549L11.774,68.611c-15.699-15.699-15.699-41.145,0-56.844c15.696-15.687,41.127-15.687,56.829,0l105.563,105.554
				L279.721,11.767c15.705-15.687,41.139-15.687,56.832,0C352.258,27.466,352.258,52.912,336.559,68.611z"/>
		</g>
	</symbol>

</svg>
